<?xml version="1.0" encoding="utf-8"?>
<!-- Generator: Adobe Illustrator 25.2.1, SVG Export Plug-In . SVG Version: 6.00 Build 0)  -->
<svg version="1.1" id="Warstwa_1" xmlns="http://www.w3.org/2000/svg" xmlns:xlink="http://www.w3.org/1999/xlink" x="0px" y="0px"
	 viewBox="0 0 487.4 252.2" style="enable-background:new 0 0 487.4 252.2;" xml:space="preserve">
<style type="text/css">
	.st0{fill:url(#SVGID_1_);}
	.st1{fill:url(#SVGID_2_);}
	.st2{fill:url(#SVGID_3_);}
</style>
<g>
	<linearGradient id="SVGID_1_" gradientUnits="userSpaceOnUse" x1="242.9445" y1="0" x2="242.9445" y2="191.6989">
		<stop  offset="0" style="stop-color:#FFFFFF"/>
		<stop  offset="0.109" style="stop-color:#EBEBEB"/>
		<stop  offset="0.3327" style="stop-color:#B7B7B7"/>
		<stop  offset="0.6521" style="stop-color:#636363"/>
		<stop  offset="1" style="stop-color:#000000"/>
	</linearGradient>
	<path class="st0" d="M221.8,66.5l0.1,7.8c-3.1-1.2-6-3.8-9.3-7.8L218,76l-0.1,16.2l12.4,11.8l0.2-32.5L221.8,66.5z M222.8,92.1
		c-0.8,0-1.5-1.3-1.5-3c0-1.7,0.7-3,1.5-3c0.8,0,1.5,1.3,1.5,3C224.3,90.8,223.7,92.1,222.8,92.1z M224.5,77.3c-0.9,0-1.5-1.3-1.5-3
		c0-1.6,0.7-3,1.5-3c0.8,0,1.5,1.3,1.5,3C226,76,225.4,77.3,224.5,77.3z M227.5,86c-0.9,0-1.5-1.3-1.5-3s0.7-3,1.5-3
		c0.8,0,1.5,1.3,1.5,3S228.4,86,227.5,86z M231.6,27.3l0,9.2l-3.7,0.7l3.7,2.5l0,14l-8.3-4.5l-0.4-13c-3.4,0.8-7.7,3.4-10.6,7.6
		c-0.6-9.1,0-18.1,1.9-27l8.7,5.8l-4.6,8.3l7.1-6.3L231.6,27.3z M265,67l0.2,7.3c4.3-1.5,6.5-5.3,9.5-9.5l-5.6,11l0.1,16.2
		l-12.5,12.3l-0.1-32.9l1.8-0.7l1.5,7.4l1.1-9L265,67z M264.3,91.9c0.8,0,1.5-1.3,1.5-3c0-1.7-0.7-3-1.5-3c-0.8,0-1.5,1.3-1.5,3
		C262.7,90.6,263.4,91.9,264.3,91.9z M262.8,77.3c0.9,0,1.5-1.3,1.5-3c0-1.6-0.7-3-1.5-3c-0.8,0-1.5,1.3-1.5,3
		C261.3,76,262,77.3,262.8,77.3z M259.5,85.8c0.9,0,1.5-1.3,1.5-3s-0.7-3-1.5-3c-0.8,0-1.5,1.3-1.5,3S258.7,85.8,259.5,85.8z
		 M272.7,16.4c1.9,9.3,2.6,18.3,1.9,27c-2.4-3.6-6.9-6.5-10.6-7.5l-0.9,12.8l-2.9,1.6l-2.5-9.1l-0.7,10.4l-1.3,0.6l-0.9-25
		L272.7,16.4z M187.5,38.2l2.3,1.5l0.3,28.1c0,0-3.4,0-3.5-5.7l-0.9-22.9C185.8,38.3,186.8,37.8,187.5,38.2z M187.3,35.6
		c-0.7-0.5-0.7-1.6,0.1-2l7.6-4.5l3.7,2.3l-9.1,5.7L187.3,35.6z M201.5,35.5l0.9-10.8l2.7,1.8l-0.8,12l-1.5-0.7
		C201.9,37.4,201.4,36.5,201.5,35.5z M208.5,20.5L208.5,20.5c1.1,1.2,0.9,3.2-0.5,4.1l-1.1,0.7l-3.7-2L208.5,20.5z M295.1,31.7
		c0.6,0.5,2.4,1.4,3,5.3l0.3,31.3c0,0.5-0.2,1-0.5,1.4l-2.6,3c-0.3,0.3-0.8,0.1-0.8-0.3c-0.3-12.7-0.7-25.3-0.9-33.7
		c0-1.8-0.8-3.5-2-4.7c-4.2-4.1-8.8-6.2-14.1-9c-1.3-0.7-1.2-2.4-1.4-3.9l-0.2-1.2C284.3,23.2,288.7,26.4,295.1,31.7z M197.7,82.5
		l3.3-1.3c0.7-0.4,1.7,0.3,2.3,0.9l24.2,29.7l14.4,10c0.9,0.8,2.3,0.8,3.1-0.1l15.4-11l25.9-29.1c0.4-0.4,1-0.6,1.5-0.5l2.7,0.1
		c1.1,0.2,1.6,1.5,1,2.4l-8.6,23.3c-0.4,0.7-1.2,1-1.9,1l-8,0.9c-1.1-0.1-2.2,0.4-2.9,1.3l-24.5,22.2c-0.6,0.7-1.4,1.3-2.3,1.5
		l-9.2,2c-1.3,0.3-2.8,0.2-4-0.5l-10.1-6c-1.3-0.6-2-2.1-2.1-3.5c-2.1-15.2-6.5-24.8-11.3-31c-4.7-6.1-9.3-10.2-9.3-10.2
		C196.8,83.9,196.9,82.9,197.7,82.5z M167.6,39.6l3.7-4.3l14.1,38.7c0.7,2,1.8,3.8,3.3,5.4c17.6,16.3,23.6,25.8,26.5,47.5
		c0.1,0.7-0.3,1.3-1,1.4l-3.5,0.8c-0.3-2.3-0.7-4.9-1-7.6c-0.5-4-1.4-8.1-2.4-11c-2.6-5.6-5-8.6-9.1-13.2L185.5,83
		c-2.6-3.1-5-6.5-6.2-10.3L167,42.9C166.6,41.8,166.8,40.5,167.6,39.6z M256,180.5c0,0.1-0.1,0.2-0.1,0.2
		C255.9,180.7,255.9,180.6,256,180.5z M332.8,65.2l-2.4-1.8c-1.9-1.4-4-2.5-6.2-3.2l-0.9-0.3l-0.7-3c-0.4-1.9-1.7-3.5-3.5-4.4
		L304,45.3c-0.7-0.3-1.6,0.2-1.6,1l0.2,22.1c0,1.8-0.5,3.5-1.5,5l-5.9,11.1l-11,27c-0.4,0.6-1.1,0.9-1.8,0.8l-8.6,0.4
		c-0.9-0.1-1.8,0.3-2.4,1L248,134.9c-0.8,1-1.8,1.7-2.9,2.1l-10.7,2.6c-1.3,0.5-2.6,1-3.9,1.7l-35.3,18.9l8.3-1.6
		c4-0.4,0.1,2.2,0.2,5.1c5.4-0.4,1.3,7.5-6.2,10.1c0.6,0.1,4.6,1,3.1,1.7c1.9,0.7,3.8,0.6,5.5-0.3c0.7,1.4-1.1,4-5.7,7.9
		c1.1,0.7,2,1,2.8,0.8c1.7,1.1-1.6,5-5.4,4c4.7,2.3,10.3,2.5,14.9-0.3c4.9-3.5,10.7-6.9,15.2-8.8c0.6,1,1.1,3.6-0.2,4.6
		c1.8,1.7,4.2,0.2,5.4,3.5c-0.4,1.9-3.5,3.4-5.6,3.2c2.6,2.9,11.7,1.7,15.6-2.4c-0.3-2.9,1-4,3.2-6.4c3.2-2.1,6.6-3.9,11.7-4.3
		c0.6,0.8-1.3,2-2,3.5c1.4-1.5,13.8-7.2,17.1-6.5c1.5,2.7-1.2,4.9-9.1,9.3c12.5-4.4,19.9-8.2,23-23.1c9.5-20.6,18.7-42.1,32.7-51.5
		c0.7,5-0.7,8.5-3.2,10.9c3,0.9,11.1-13.5,11.1-13.5c-2.4-0.4-1-13.6,2.8-16.9c-0.3-6.4,2.5-9.5,2.9-12.9
		C333.8,71.6,332.4,68.1,332.8,65.2z M237.6,176.9c-0.3,0-1-0.7-1.3-1.5l3.2-1.4L237.6,176.9z M246.6,173.8l0.8-0.8
		c0.3-0.3,0.6-0.4,1-0.3l1,0.6L246.6,173.8z M280.4,160.8c-0.2,0.3,1.5,3.1,0.8,3.1c-2.1,0-8-1.1-6.5-2.6c1.5-1.6,3.9-3.5,4.9-4.6
		c1-1.1,2.7,1.6,3.6,2.8C284.1,160.5,281,160,280.4,160.8z M214.5,130.6l12.4,7.7c0.6,0.4,0.6,1.3-0.1,1.7l-23,12.3
		c-0.8,0.5-2.2,0.6-2.6-0.2c-3-6.5-11.4-0.7-13.9,0.5c0,0,4.1-6.7,6.7-8.7c-0.2-1.4-1.2-2.1-2.4-2.4c-0.3-3.1,1-6.9,2.5-10.9
		c-1.1,0.4-1.8,1.4-4.1,2.3c1.6-1.5,1.8-3,2.8-3.9c-1.9-0.1-2.7,0.3-3.3,0.6c0,0,0.4-0.9,1.7-2c1.2-1.4,0.5-2.1-2.4-2
		c-9,1-13.2,7.8-13.2,7.8c-0.1-1.6,0.8-3.6,1.8-5.2c1.2-1.2,2.5-6.1-1.4-2.4c-0.5,0,3.9-8.3,7.7-10.3c-1.2-0.4-2.5,0.1-3.9,0.9
		l5.8-8.4c-4.2-0.7-6.2,0-6.1,0.6c0,0-0.2-1.6,0.1-2.1c0,0-3.3-1.3-6.5,3.5c0.8-4.7,0.8-5.1,5-9l-4.1-3.6c-2.1,0.1-3,1.3-5.5,5.5
		c-0.4-2.9,0.3-6.8,1.9-9.6c-0.5,0-1.5-0.5-5,2c1.8-3.4-6.4-1.7-8.8,2.4c0,0-0.9-3.2,1.2-6.3c1.7-2.4,3.9-3.8,3.9-3.8
		c0.2-0.7-1.2-0.3-2.9,0.3c0,0,1.5-2.7,2.9-3.5c-3.2-3.5-6.2-8.4-9.3-13.6c-0.1-0.2-0.1-0.5,0.1-0.7l8.2-6.2
		c0.2-0.2,0.6-0.1,0.7,0.2c5.2,16.9,15.3,30.1,24.1,39.5c10.7,11.6,13.2,25.5,12.9,36.4c-0.1,2-0.2,4-0.4,5.8
		c3.4,3.5,7.9,4,13.3,0.1l-0.7-14.1 M201,105.1c-5.7-7.5-10.2-11.6-16.2-18.3c-3.1-3.4-7-10.2-8.7-14.5l-5.9-14.9l-6.5,4.6
		c3.8,11.4,11,24.6,18.8,34c7.6,7.7,12.7,12.7,15.3,21.8c2.6,8.7,3.5,17.3,2.8,26.6c3,2,5.4,2,8.4,0c0.1-10.1-1.1-19.9-3.3-29.6
		C204.9,111.1,203.4,108.1,201,105.1z M205,143.8c-1.2,0-2.2-1-2.2-2.2c0-1.2,1-2.2,2.2-2.2c1.2,0,2.2,1,2.2,2.2
		C207.2,142.8,206.2,143.8,205,143.8z M223,20.4l-8.1-5.2l1-5.3C222.3,3,231.8,1,243.6,0c13.2,0.4,21.9,4,27.3,9.9l1.4,5.2
		l-15.1,8.7c-1.8,1.1-3.8,1.8-5.9,2.2l-8.2,1.6l-7.6-1.5c-1.6-0.3-3.2-0.8-4.8-1.6l-3.2-1.5c-0.5-0.2-0.7-0.8-0.4-1.3l5.2-8.1
		l-8.1,6.7C223.9,20.7,223.4,20.7,223,20.4z M241.9,110.6l-0.1-81l-8.4-2l0.2,8.8l3,3.3l-3.1,0.3l0,16.5L221.3,50V39.3
		c-5.3,2.3-8.6,4-11.8,12.4c0.7,7.9,3.3,14.6,10.7,19.4V64l12.3,6.4v35.8L241.9,110.6z M217.6,58.8v-6.6l17.8,9v6.5L217.6,58.8z
		 M244.6,110.6l-0.1-81l8.9-2.1l-0.1,29l11.9-6.4l0.4-11.8c5.3,2.3,7.6,4.8,10.8,13.2c-0.7,7.9-2.1,14.7-9.6,19.4v-7.1l-12.3,6.4
		V106L244.6,110.6z M269,58.9l0.1-6.6l-17.4,8.8v6.5L269,58.9z M245.1,133.1"/>
	<g>
		<linearGradient id="SVGID_2_" gradientUnits="userSpaceOnUse" x1="383.0546" y1="212.3235" x2="383.2004" y2="257.275">
			<stop  offset="0" style="stop-color:#FFFFFF"/>
			<stop  offset="8.548176e-02" style="stop-color:#F5F5F5"/>
			<stop  offset="0.2327" style="stop-color:#D9D9D9"/>
			<stop  offset="0.424" style="stop-color:#ACACAC"/>
			<stop  offset="0.652" style="stop-color:#6D6D6D"/>
			<stop  offset="0.908" style="stop-color:#1E1E1E"/>
			<stop  offset="1" style="stop-color:#000000"/>
		</linearGradient>
		<path class="st1" d="M432.8,238.9c-2.1-2.3-4.3-4.7-6.4-7c-0.4-0.4-1.2-1.3-1.2-1.3c-0.6-0.2-1.6,0.2-1.8,0.3
			c-0.2,0.2-0.4-1.4-0.3-1.4c0.3,0.2,0.6,0.4,1,0.5c0,0,0.3-0.2,0.3-0.3c-1-1.2-2-2.4-3.1-3.5c0.5-0.5,0.9-1,1.3-1.4
			c2.3-2.1,4.5-4.3,6.8-6.4c1-1,2-1.9,3.1-2.8c3.2-3,6.9-4.8,11.2-5.6h-12c-5.3,5-10.7,10-16.3,15.2v-5.2c0-1.7,0-3.4,0-5.2
			c0-1.6,0.2-3.3-0.1-4.9h-12c4.4,1.5,5.4,3.1,5.4,7.3c0,4.2,0.3,8.3,0.3,12.5c0.1,3.4,0.1,6.7,0,10.1c-0.1,2.5-1.4,4.2-3.8,5
			c-0.6,0.2-1.2,0.4-2.2,0.7h12.4v-18.3c5.7,6.3,11.1,12.4,16.4,18.4c4.1,0,8,0,11.9-0.2C439.4,244.3,435.7,242.1,432.8,238.9z
			 M487.4,233.5c-0.1-2.4-1.1-4.5-3.1-5.9c-1.2-0.9-2.6-1.7-4.1-2.3c-3.3-1.3-6.9-1.8-10.5-2c-2.8-0.1-5.6-0.1-8.3-0.4
			c-4.3-0.4-6.8-2.4-7.6-5.8c-0.3-1.1-0.2-2.3-0.3-3.5c0-1.6,0.6-3,1.8-4c1-0.8,2.1-1.5,3.3-2.1c2.1-0.9,4.4-1.1,6.6-1.1
			c2.6,0,5.3,0.3,7.7,1.6c3.5,1.8,4.1,5.5,1.4,8.4c-0.1,0.2-0.2,0.4-0.5,0.7c1.7,0,3.3,0,4.8,0c1.5,0,3,0.2,4.6-0.2
			c0.1-2.8-0.5-5.3-2.4-7.4c-2.2-2.5-5.1-3.6-8.3-4.3c-3.6-0.8-7.2-0.5-10.9-0.5c-2.9,0-5.8,0.4-8.6,1.3c-6.1,2.1-6.8,5.5-6.4,9.9
			c0.2,2.4,1.3,4.3,3.1,5.7c3,2.4,6.5,3,10.2,3.4c1,0.1,1.7,0.1,2.7,0.2c0-0.1,0.4-0.4,0.4-0.4s0.2,0.5,0.3,0.5
			c1.3,0.1,2.6,0.1,3.9,0.2c2.1,0.1,4.2,0.7,6,1.7c4,2.2,5.6,6,4.6,10.7c-0.8,3.7-3.5,5.5-6.8,6.5c-2.9,0.8-5.9,1.1-8.8,0.8
			c-2.8-0.3-5.6-1-8-2.6c-3.6-2.3-3.4-6.5-1.6-9.2c0.5-0.8,1.1-1.5,1.5-2h-12c-0.5,3,0,5.7,1.6,8.1c1.7,2.7,4.3,4.3,7.2,5.3
			c3.8,1.4,7.7,1.9,11.7,2c4.4,0.1,8.9-0.1,13.2-0.8c2.6-0.4,5.2-1.1,7.5-2.4c1.2-0.7,2.9-2.6,2.9-2.6c-0.1-1-0.5-1.9-1.2-2.7
			c0.9,0.1,1.6,0.5,2.1,1.1c0,0,0.3-0.9,0.4-1.4C487.5,236.4,487.4,234.9,487.4,233.5z M388.4,245.4h12.9c-1.2-0.4-2-0.5-2.7-0.8
			c-2-0.8-3.1-2.2-3.5-4.2c-0.1-0.6-0.1-1.2-0.1-1.8c0-3.8,0-7.7-0.1-11.5c-0.1-3.9-0.3-7.8-0.3-11.7c0-2.5,1.3-4.2,3.7-5.1
			c0.4-0.1,0.7-0.2,1.1-0.4c0-0.1,0-0.1-0.1-0.2h-16c3.2,1.1,4.9,2.7,4.8,6.7c-0.1,7.3,0,14.7,0,22c0,0.5,0,1.1-0.1,1.9
			c-7.9-10.4-15.7-20.5-23.4-30.6c-2.1,0-4,0-5.9,0c-1.9,0.1-3.8-0.4-6,0.1c3.6,1.1,5.2,2.7,5.1,6.9c0,0.7,0,1.4,0,2.1
			c0,0.2,2.1,0,2.1,0.1c0,0.1-0.5,0.2-1,0.4c-0.3,0.1,0.3,0.3,0.1,0.3c-0.2,0.1-1.3,0-1.3,0.1c0,1.7,0,3.4,0,5.1
			c0,2.6,0,5.2,0.1,7.7c0,2.4,0.2,4.7,0.2,7.1c0,1.8-0.7,3.3-2.4,4.3c-1.9-1.2-3.1-3-4.1-5c-4.3-9-8.7-18.1-13-27.1
			c-0.3-0.7-0.7-1.4-1-2.1h-12.4c0.9,0.3,1.3,0.3,1.7,0.5c1.9,0.8,2.5,1.9,2,3.9c-0.2,0.6-0.4,1.3-0.7,1.9
			c-1.5,3.6-3.1,7.1-4.6,10.7c-1.8,4.2-3.7,8.5-5.6,12.7c-0.7,1.5-1.5,2.9-3.2,3.8c-0.5-0.4-1-0.6-1.5-1c-0.6-0.5-1.2-0.9-1.6-1.5
			c-2.6-3.6-5.1-7.2-7.8-10.9c1-0.4,1.9-0.8,2.7-1.2c4.1-2,5.9-5.5,5.4-10.5c-0.5-4.4-3.3-6.7-6.9-7.8c-2.5-0.8-5.1-0.7-7.7-0.8
			c-5.2-0.1-10.3,0-15.5,0c-1,0-2,0.1-3.1,0.1c0.3,0.4,0.6,0.4,0.9,0.5c2.1,0.7,4.1,2.2,4,5.4c0,1.6,0.2,3.2,0.2,4.7
			c0,2,0.1,3.9,0.1,5.9c0.5,0.3,1.9,0,2.1-0.3c0,0,0,0.9-0.6,0.8c-0.6,0-0.1,0.4-0.1,0.4s-1.3-0.1-1.3,0c0,4.2,0.1,8.4,0.1,12.6
			c0,2.2-1.1,3.8-3.1,4.6c-0.8,0.4-1.7,0.6-2.6,0.8c2.8,0.3,10.7,0.2,12.3-0.2v-14.7h6.9c3.5,5,7,10,10.5,14.9h18.6
			c-0.8-0.3-1.3-0.4-1.7-0.6c-1.6-0.7-2.2-1.9-1.7-3.5c0.2-0.6,0.4-1.1,0.6-1.7c0.9-2,1.8-4.1,2.7-6.1c0.2-0.5,0.5-0.9,0.7-1.2h17.1
			c2.2,4.4,4.3,8.9,6.4,13.2h19.3c-0.2-0.2-0.5-0.3-0.7-0.3c-3.2-0.7-5-2.4-4.9-6.3c0.1-7.4,0-14.8,0-22.2c0-0.5,0-0.9,0.1-1.7
			C373,225.2,380.7,235.3,388.4,245.4z M287.4,227.4c-0.2-0.1-0.2-0.3-0.3-0.6c0.4,0,0.6,0.1,0.8,0.2
			C287.8,227.2,287.7,227.3,287.4,227.4z M298.5,227.8c-2.4,0.2-4.9,0-7.4,0v-15.7c2.6,0,5-0.2,7.3,0c3,0.3,5.7,2.3,6.3,6.4
			c0.2,1.2,0.1,2.5-0.1,3.7C304,225.6,301.8,227.5,298.5,227.8z M328.8,229.7c2.4-5.3,4.7-10.6,7.2-16.1c2.7,5.5,5.2,10.7,7.7,16
			C342.3,229.9,331.7,230,328.8,229.7z"/>
		<linearGradient id="SVGID_3_" gradientUnits="userSpaceOnUse" x1="127.3806" y1="209.5395" x2="126.8519" y2="262.0884">
			<stop  offset="0" style="stop-color:#FFFFFF"/>
			<stop  offset="0.109" style="stop-color:#EBEBEB"/>
			<stop  offset="0.3327" style="stop-color:#B7B7B7"/>
			<stop  offset="0.6521" style="stop-color:#636363"/>
			<stop  offset="1" style="stop-color:#000000"/>
		</linearGradient>
		<path class="st2" d="M43.4,230.4c-0.4-2.6-1.6-4.8-3.8-6.5c-1.9-1.4-4-2.2-6.5-2.8c2.9-1.1,4.5-3.1,5-5.9c0.2-0.9,0.2-1.8,0.2-2.8
			c-0.1-4.4-2.6-7.4-6.3-8.6c-2.8-0.9-5.6-0.9-8.4-0.9c-5.7,0-11.4,0-17.1,0c-1.4,0-2.8-0.2-4.3,0.3c3.5,1.1,5.1,2.6,5.1,6.7
			c0,1,0,2,0,3c0,0.2,1.6,0.4,1.6,0.6c0,0.2-1.6,0.2-1.6,0.3c0.1,2.8,0.2,5.5,0.2,8.3c0.1,4.6,0,9.2,0.1,13.9
			c0.1,4.2-1.2,7.9-3.6,11.3c-1.2,1.7-2.7,3.2-4.1,4.8c0.1,0,0.1,0.1,0.2,0.1c0.3-0.2,0.5-0.4,0.8-0.6c2.7-2,5.6-3.8,8.7-5.2
			c2-0.9,4.1-1.4,6.3-1.4c3.2,0.1,6.5,0,9.7,0c2.5,0,5.1,0.2,7.5-0.1c4.7-0.5,8.2-3.2,9.8-7.8C43.7,235.1,43.8,232.7,43.4,230.4z
			 M14.2,205.6c0.4-0.1,0.9-0.2,1.3-0.2c2.7,0,5.4,0,8.1,0c3.6-0.1,7.1,2.7,7.1,7.1c0,0.7,0.1,1.3,0,2c-0.6,3.9-2.6,6.4-7.2,6.7
			c-3,0.2-6.1,0-9.3,0V205.6z M31.9,241.2c-2,1.2-4.1,1.8-6.4,1.9c-3.7,0.1-7.4,0-11.1,0c-0.1-0.5-0.2-2.3-0.3-4.7
			c0-0.3-1.9-0.6-1.9-0.9c0-0.2,1.8-0.4,1.8-0.6c0-0.2,0-0.3,0-0.5c0-0.2-1.3-0.1,0-0.7c-0.1-4.6,0-9.9,0.2-12c4.3,0,8.4-0.1,12.6,0
			c2.3,0.1,4.4,1,6.2,2.4C37.7,229.9,37.1,238,31.9,241.2z M218.2,214.5c8,10.5,15.7,20.6,23.4,30.6H254c-4.2-1.3-5.5-2.8-5.6-6.2
			c0-3.3-0.1-6.6-0.1-9.8c0-0.2-4.4-0.3-4.4-0.3s0.7-0.3,1.6-0.4c0.3-0.1,0-0.6,0-0.6s2.8,0.1,2.8-0.1c0-4.3,0-8.5-0.1-12.8
			c0-2.3,1.1-3.8,3.3-4.7c0.7-0.2,1.3-0.4,2.1-0.7c-2.4-0.3-15.9-0.2-17.4,0.1c0.4,0.1,0.7,0.2,1,0.2c2.9,0.9,4.3,2.7,4.3,5.8
			c-0.1,7.3,0,14.7,0,22v2.4c-7.1-9.2-13.9-18.2-20.8-27.1l-3.7-0.3l1.2-0.3l-0.3-0.3l2.1-0.2c-0.6-0.8-1.2-1.6-1.8-2.4h-12.5
			c0.7,0.3,1.1,0.4,1.5,0.5c3.2,1.1,4.2,2.5,4.2,5.8c0,2.1,0.2,4.2,0.2,6.3c0.1,5.9,0.1,11.8,0.1,17.6c0,1.9-0.9,3.3-2.6,4.2
			c-0.7,0.4-1.6,0.6-2.3,1c2,0.4,14.9,0.4,16.2-0.1c-0.4-0.1-0.8-0.2-1.2-0.3c-2.2-0.8-3.4-2.4-3.6-4.7c0-0.4,0-0.8,0-1.2V214.5z
			 M76.7,240.2c-2.5-3.4-4.9-6.9-7.4-10.5c1.2-0.5,2.1-0.8,3-1.3c0.7-0.4,1.9-1.3,1.9-1.3c-0.1-1-0.1-2.1,0-3.2
			c0.6,0.6,1.2,0.9,1.9,0.9c0,0,0.8-1.5,1-2.4c0.3-1.3,0.3-2.8,0.2-4.1c-0.1-4-2.3-6.4-6-7.8c-1-0.4-2-0.6-3-0.8
			c-0.8,1.9-0.4-0.1-0.6-0.1c-0.9-0.1-1.7-0.2-2.6-0.2c-4.8-0.1-9.6-0.1-14.4-0.1v2.5c-0.4-1.2-1-1.9-1.8-2.5h-3.8
			c-0.5,0-0.9,0.1-1.8,0.1c0.7,0.2,0.9,0.2,1.2,0.3c3.6,1.1,4.8,2.7,4.9,6.5c0,3.2,0.1,6.5,0.1,9.7c0,2,0.1,4,0.1,5.9
			c0,2.8,0,5.7-0.1,8.5c-0.1,1.9-1.2,3.1-3,3.9c-0.5,0.2-1.1,0.4-1.6,0.6c0,0.1,0,0.1,0.1,0.2h11.3c0-2.6,0-5.1,0-7.6
			c0-2.5-0.1-5,0.1-7.4h6.6c3.5,5,7.1,10,10.5,15c3.2,0.3,10.1,0.2,11.5-0.2C81.2,244.1,78.5,242.6,76.7,240.2z M63.8,227.6
			c-2.4,0.2-4.9,0-7.3,0c-0.4-1.5-0.4-13.1-0.1-16c2.7,0.2,5.3,0.1,7.8,0.5c3.3,0.6,5,2.9,5.5,6.2c0.2,1.7,0.1,3.3-0.4,4.9
			C68.5,226,66.5,227.4,63.8,227.6z M151.1,238.4c-0.6-0.7-1.8-2-1.8-2c-0.9,0.1-1.8-0.2-2.2-0.6c-0.5-0.5-1.8-0.4-2.5-1
			c0.7-0.4,1.4-0.9,2.1-1.4c0,0-1.8-2-2.6-3c-1.3-1.5-2.7-3.1-4.1-4.7c3.9-3.7,7.7-7.4,11.7-10.9c2.5-2.2,5.4-3.8,8.7-4.6
			c0.7-0.2,1.4-0.4,2.2-0.6c0-0.1,0-0.1,0-0.2h-11.8c-2.7,2.5-5.4,5-8.1,7.5c-2.7,2.5-5.3,5.1-8.4,7.7v-15.2h-12.4
			c0.5,0.2,0.9,0.3,1.2,0.4c3.4,1,4.4,3.4,4.4,6.2c0,3.8,0.2,7.5,0.3,11.3c0.1,4,0.1,8.1,0,12.1c0,2.4-1.3,4.1-3.6,4.9
			c-0.4,0.1-0.8,0.3-1.5,0.5c2.9,0.4,10.2,0.3,11.6-0.1V227c5.6,6.3,11,12.3,16.2,18.1c3.1,0.3,10.1,0.2,11.6-0.1
			c-1-0.3-2-0.6-3-0.9C156,242.8,153.4,240.8,151.1,238.4z M121.4,225.2c-0.5-4-2.4-7.4-6-9.6c-2.5-1.5-5.2-2.4-8-2.6
			c-1.3-0.1-2.7-0.4-4.3,0.2c6,0.9,9,4.5,10.3,9.9c0.5,2.1,0.6,4.3,0.5,6.5c-0.2,2.9-0.8,5.7-2.4,8.3c-3.4,5.5-7.7,6.4-12.7,5.5
			c-4.6-0.8-6.9-4.1-7.9-8.4c-0.7-3.3-1-6.6-0.5-10c0.9-6.6,4.3-11.2,10.6-13.5c2.4-0.9,4.8-1.3,7.3-1.4c-4.8-1.1-9.4-0.4-13.9,1
			c-2.2,0.7-4.2,1.9-5.9,3.5c-4.7,4.5-6.7,9.9-5.8,16.5c0.9,6.7,4.4,11.2,10.8,13.3c6.2,2,12.4,1.8,18.4-0.6c4.9-2,7.9-5.5,9.1-10.7
			C121.7,230.5,121.7,227.8,121.4,225.2z M197.5,242.8c-0.9,0.1-1.7,0.2-2.6,0.2c-5,0-9.9,0-14.9,0h-2v-15.6c2.1,0,4,0,6,0
			c2.2,0,4.3,0,5.8,2.2v-6.9c-0.9,1.6-2.1,2.3-3.4,2.4c-2.8,0.1-5.5,0-8.4,0v-13.2h2c5.3,0,10.6,0,15.9,0c2.8,0,5.3,0.6,7,3.6
			c0.1-2.2,0.2-4-0.1-5.9h-37.1c0.2,0.2,0.5,0.3,0.7,0.4c3.4,1,4.8,3.1,4.6,6.4c0,1.2,0,2.3,0,3.5c0,0.1,1.6,0.2,1.6,0.2
			s-1.6,0.2-1.6,0.3c0,1,0,2.1,0.1,3.1c0.1,5.3,0.3,10.7,0.3,16c0,2.4-1.2,4.1-3.5,5c-0.4,0.2-0.9,0.3-1.3,0.4c0,0.1,0,0.1,0,0.2
			H203v-5.2C201.5,241.7,199.7,242.7,197.5,242.8z"/>
	</g>
</g>
</svg>
